<?xml version="1.0" encoding="UTF-8"?>
<svg width="60" height="60" xmlns="http://www.w3.org/2000/svg">
	<circle cx="30" cy="30" r="29" fill="#0bf" />
	<path d="M 32.7,16.9 C 32.3,17.2 31.9,17.5 31.6,17.8 C 31.1,18.4 30.6,19 30,19.6 C 28.8,20.8 27.6,22.1 26.3,23.3 C 25.5,23.9 24.8,24.6 24.1,25.2 C 23,26.1 21.9,27 20.8,27.8 C 19.1,29 17.4,30.2 15.6,31.2 C 14.1,32.1 12.6,32.9 11,33.5 C 10.4,33.8 9.8,34 9.2,34.3 C 8.9,34.4 8.6,34.7 8.4,34.9 C 8.3,35.3 8.3,35.7 8.5,36 C 8.6,36.2 8.7,36.3 8.9,36.4 C 9.4,36.6 10,36.5 10.6,36.5 C 12,36.5 18,36.4 19.7,36.4 C 20.8,36.4 21.9,36.3 23,36.7 C 23.6,36.9 24,37.2 24.5,37.5 C 25.6,38.1 26.8,38.4 28.1,38.5 C 28.7,38.6 29.3,38.6 29.9,38.6 L 29.9,43.1 L 32.2,43.1 L 32.2,38.2 C 32.6,38 33,37.9 33.4,37.8 C 34.8,37.1 36.1,36 36.9,34.6 C 37.7,33.2 38.2,31.7 38.3,30.1 C 38.4,29.5 38.4,28.8 38.4,28.2 C 39.8,27.8 41,26.9 41.9,25.7 C 42.3,25.2 42.6,24.7 42.8,24.1 C 43,23.8 43.1,23.4 43.1,23 L 45.5,23 C 45.7,23 46.1,22.1 46.1,21.9 C 46.1,21.6 45.7,20.8 45.5,20.8 L 43.1,20.8 C 43,19.6 42.5,18.6 41.8,17.8 C 41.3,17.2 40.8,16.8 40.2,16.4 C 38.8,15.7 37.1,15.4 35.6,15.7 C 34.6,15.9 33.6,16.3 32.7,16.9 z" fill="#ddd" />
	<circle cx="38" cy="21" r="1" fill="#0bf" />
	<path d="M 10,47 C 25,50 35,37 52,42" fill="none" stroke="#270" stroke-width="3" stroke-linecap="round" />
</svg>
